#!OML:ASF H:\Terrain\Patient Classification 1\Walking\liu\liu.ASF
:FULLY-SPECIFIED
:DEGREES
178
root 8.11406 16.7212 -12.2541 7.87718 6.63119 -1.80556
lowerback -4.57014 0.461808 0.115797
upperback -0.354064 0.533977 3.46054
thorax 2.1673 0.25489 3.53683
lowerneck -20.7196 -8.22656 -15.0556
upperneck 14.6153 -9.94475 15.4483
head 9.62561 -3.9652 6.40855
rclavicle 2.28602e-015 2.22639e-014
rhumerus -38.1867 11.4917 -78.9812
rradius 41.3605
rwrist -21.1666
rhand -30.3126 -25.4186
rfingers 7.12502
rthumb -3.61938 -55.3676
lclavicle 2.28602e-015 2.22639e-014
lhumerus -45.007 -12.8515 96.4066
lradius 32.6131
lwrist 17.4982
lhand -12.6379 -25.6321
lfingers 7.12502
lthumb 13.4422 3.9142
rfemur -20.4596 2.87036 26.3829
rtibia 27.6484
rfoot -17.4211 1.92051
rtoes -16.9939
lfemur -26.2683 8.19682 -18.1418
ltibia 62.5748
lfoot -9.92391 10.5115
ltoes -7.38875
179
root 8.10953 16.7131 -12.1359 7.85428 6.45584 -2.05876
lowerback -4.56858 0.402919 0.306404
upperback -0.437578 0.447757 3.48426
thorax 2.08693 0.214662 3.44738
lowerneck -20.1781 -7.84238 -14.7697
upperneck 14.4304 -9.5458 15.4455
head 9.38306 -3.78915 6.42964
rclavicle -7.7526e-015 -6.36111e-015
rhumerus -37.6117 11.4593 -79.056
rradius 41.4905
rwrist -20.9899
rhand -30.3473 -25.3295
rfingers 7.12502
rthumb -3.65283 -55.278
lclavicle -7.7526e-015 -6.36111e-015
lhumerus -45.3364 -11.7532 95.8107
lradius 32.7748
lwrist 17.0808
lhand -12.6598 -25.3648
lfingers 7.12502
lthumb 13.4212 4.18288
rfemur -20.0661 3.14464 26.7379
rtibia 27.7403
rfoot -17.6765 1.91205
rtoes -16.1209
lfemur -27.5573 8.1682 -18.1308
ltibia 62.3813
lfoot -10.9485 10.6605
ltoes -7.00737
180
root 8.10484 16.6991 -12.0154 7.78899 6.36512 -2.19651
lowerback -4.53261 0.0852978 0.240507
upperback -0.563175 0.0327108 3.4317
thorax 1.9613 0.00848818 3.40293
lowerneck -19.7568 -7.12152 -13.5227
upperneck 14.5414 -8.84796 14.8666
head 9.13514 -3.46524 6.12862
rclavicle 6.55989e-015 0
rhumerus -37.2364 11.8788 -79.5817
rradius 41.7582
rwrist -20.7739
rhand -30.4069 -24.8763
rfingers 7.12502
rthumb -3.71039 -54.8237
lclavicle 6.55989e-015 0
lhumerus -45.7652 -10.4051 94.8333
lradius 32.9532
lwrist 17.3187
lhand -12.2665 -24.8216
lfingers 7.12502
lthumb 13.8001 4.70065
rfemur -19.6281 3.47084 27.0025
rtibia 27.8174
rfoot -18.156 1.58205
rtoes -15.6734
lfemur -28.7553 8.01136 -18.2137
ltibia 62.0485
lfoot -11.9358 10.6502
ltoes -3.43657
181
root 8.10637 16.6917 -11.8883 7.70227 6.15665 -2.15791
lowerback -4.71648 0.812651 0.480998
upperback -0.271957 0.977584 3.44129
thorax 2.31344 0.478519 3.3425
lowerneck -19.7579 -7.97371 -15.1292
upperneck 14.295 -9.69407 15.5712
head 9.31356 -3.88573 6.51286
rclavicle -1.12313e-014 -6.36111e-015
rhumerus -36.6598 10.1208 -78.1344
rradius 42.2132
rwrist -20.8456
rhand -30.3406 -24.2694
rfingers 7.12502
rthumb -3.64639 -54.2179
lclavicle -1.12313e-014 -6.36111e-015
lhumerus -45.1518 -11.4728 95.6492
lradius 32.8186
lwrist 17.4559
lhand -13.2896 -24.5618
lfingers 7.12502
lthumb 12.8141 5.02488
rfemur -19.0833 3.6888 27.0395
rtibia 27.9291
rfoot -18.5255 1.50193
rtoes -14.7495
lfemur -29.7187 7.83825 -18.53
ltibia 61.5101
lfoot -12.6816 10.9469
ltoes -4.00776
182
root 8.10532 16.6891 -11.7661 7.78276 5.9199 -2.22169
lowerback -4.2085 0.995788 0.674454
upperback -2.14228 1.29115 3.38423
thorax 0.094661 0.661465 3.1546
lowerneck -13.5358 -7.09395 -16.1851
upperneck 13.1288 -9.11513 16.3022
head 7.80657 -3.88979 7.1072
rclavicle -6.85807e-015 2.70347e-014
rhumerus -40.7233 10.4148 -78.4977
rradius 43.668
rwrist -21.2168
rhand -30.4969 -24.9072
rfingers 7.12502
rthumb -3.79732 -54.8531
lclavicle -6.85807e-015 2.70347e-014
lhumerus -49.2963 -11.038 96.3134
lradius 33.2904
lwrist 16.8422
lhand -14.8086 -25.2004
lfingers 7.12502
lthumb 11.3494 4.47245
rfemur -18.7732 3.98761 27.1746
rtibia 28.1143
rfoot -18.9256 1.3952
rtoes -14.1464
lfemur -30.8781 7.81703 -18.7392
ltibia 60.8325
lfoot -12.6722 11.4803
ltoes -7.93351
183
root 8.10662 16.6719 -11.6456 7.77665 5.76721 -2.21455
lowerback -4.02341 1.08506 0.652838
upperback -2.53656 1.42993 3.35565
thorax -0.420762 0.736185 3.13376
lowerneck -12.0557 -6.85582 -16.3281
upperneck 12.7522 -8.95575 16.4464
head 7.4055 -3.87825 7.22083
rclavicle 9.61621e-015 -6.36111e-015
rhumerus -41.6969 10.4135 -78.4485
rradius 44.819
rwrist -21.6157
rhand -30.9006 -25.3926
rfingers 7.12502
rthumb -4.18718 -55.3311
lclavicle 9.61621e-015 -6.36111e-015
lhumerus -50.1066 -11.0541 96.5564
lradius 33.1322
lwrist 16.9889
lhand -15.3558 -25.9339
lfingers 7.12502
lthumb 10.8216 3.76726
rfemur -18.3834 4.144 27.2602
rtibia 28.2971
rfoot -19.1936 1.27793
rtoes -14.4623
lfemur -31.9412 7.78504 -18.977
ltibia 60.1058
lfoot -12.7052 11.712
ltoes -7.73033
184
root 8.11106 16.6515 -11.5185 7.53353 5.67025 -2.05523
lowerback -3.9916 1.12318 0.428257
upperback -2.02029 1.47164 3.30041
thorax 0.0859759 0.752398 3.21027
lowerneck -13.1171 -6.99429 -15.897
upperneck 12.7397 -9.03663 16.2218
head 7.57383 -3.86461 7.03706
rclavicle -1.80646e-014 -1.82882e-014
rhumerus -40.2684 9.89376 -78.1295
rradius 44.9406
rwrist -21.6626
rhand -31.3164 -25.2431
rfingers 7.12502
rthumb -4.58868 -55.1734
lclavicle -1.80646e-014 -1.82882e-014
lhumerus -49.1046 -11.0293 96.3571
lradius 32.7911
lwrist 17.3259
lhand -15.548 -24.5845
lfingers 7.12502
lthumb 10.6362 5.12636
rfemur -17.6314 4.17947 27.1867
rtibia 28.393
rfoot -19.4284 1.21457
rtoes -14.1861
lfemur -32.6255 7.65739 -19.3943
ltibia 59.3257
lfoot -12.7704 12.0045
ltoes -2.90168
185
root 8.10908 16.6423 -11.393 7.49893 5.54591 -2.19475
lowerback -4.20419 1.16811 0.498442
upperback -1.53712 1.50791 3.28479
thorax 0.701464 0.763019 3.1683
lowerneck -14.5738 -7.15769 -15.3885
upperneck 13.0426 -9.15783 15.9892
head 7.91629 -3.84793 6.83332
rclavicle 2.00276e-014 -2.22639e-014
rhumerus -38.6276 9.27738 -77.9197
rradius 44.8812
rwrist -21.6546
rhand -31.3899 -25.1842
rfingers 7.12502
rthumb -4.65966 -55.113
lclavicle 2.00276e-014 -2.22639e-014
lhumerus -48.28 -10.6528 95.8768
lradius 32.6729
lwrist 16.6692
lhand -16.0296 -23.6572
lfingers 7.12502
lthumb 10.1716 6.07687
rfemur -17.0821 4.38102 27.4472
rtibia 28.3764
rfoot -19.9483 0.987185
rtoes -13.921
lfemur -33.5916 7.66127 -19.5619
ltibia 58.4948
lfoot -11.8069 12.9051
ltoes 3.6198
186
root 8.10942 16.6429 -11.2631 7.54503 5.2905 -2.32824
lowerback -4.7316 1.13385 0.536437
upperback -0.468512 1.4143 3.1945
thorax 2.10314 0.700609 3.08017
lowerneck -18.3911 -7.41297 -14.2337
upperneck 14.0713 -9.31611 15.5408
head 8.88364 -3.7228 6.42308
rclavicle 3.26007e-014 5.48646e-014
rhumerus -35.913 8.85422 -77.9413
rradius 44.9549
rwrist -21.908
rhand -31.7003 -25.4156
rfingers 7.12502
rthumb -4.95931 -55.3375
lclavicle 3.26007e-014 5.48646e-014
lhumerus -46.1428 -10.8369 95.2166
lradius 32.3179
lwrist 16.6568
lhand -16.3388 -24.1684
lfingers 7.12502
lthumb 9.87334 5.58014
rfemur -16.5031 4.39803 27.6895
rtibia 28.183
rfoot -20.3184 1.17654
rtoes -13.4465
lfemur -34.538 7.56103 -19.6328
ltibia 57.4676
lfoot -15.4797 12.2265
ltoes -8.17944
